# xmcd
#
# Track frame offsets: 
#        150
#        22779
#        45942
#        68163
#        91423
#        118249
#        134105
#        146808
#        163421
#        180200
#        207095
#        225097
#
# Disc length: 3219 seconds
#
# Revision: 0
# Processed by: cddbd v1.5.2PL0 Copyright (c) Steve Scherf et al.
# Submitted via: ExactAudioCopy v0.99pb4
#
DISCID=9d0c910c
DTITLE=Various Artist - ATribute To Joni Mitchell
DYEAR=2007
DGENRE=Blues
TTITLE0=Free Man in Paris - Sufjan Stevens
TTITLE1=The Boho Dance - Björk
TTITLE2=Dreamland - Caetano Veloso
TTITLE3=Don't Interrupt the Sorrow - Brad Meldau
TTITLE4=For the Roses - Cassandra Wilson
TTITLE5=A Case of You - Prince
TTITLE6=Blue - Sarah McLachlan
TTITLE7=Ladies of the Canyon - Annie Lennox
TTITLE8=The Magdalene Laundries - Emmylou Harris
TTITLE9=Edith and the Kingpin - Elvis Costello
TTITLE10=Help Me - k.d. lang
TTITLE11=River - James Taylor
EXTD=
EXTT0=
EXTT1=
EXTT2=
EXTT3=
EXTT4=
EXTT5=
EXTT6=
EXTT7=
EXTT8=
EXTT9=
EXTT10=
EXTT11=
PLAYORDER=
